<?xml version="1.0" standalone="no"?>
<!DOCTYPE svg PUBLIC "-//W3C//DTD SVG 20010904//EN"
 "http://www.w3.org/TR/2001/REC-SVG-20010904/DTD/svg10.dtd">
<svg version="1.0" xmlns="http://www.w3.org/2000/svg"
 width="900.000000pt" height="900.000000pt" viewBox="0 0 900.000000 900.000000"
 preserveAspectRatio="xMidYMid meet">

<g transform="translate(0.000000,900.000000) scale(0.100000,-0.100000)"
fill="#000000" stroke="none">
<path d="M4380 8072 c-98 -49 -107 -186 -17 -253 43 -32 132 -34 174 -3 52 38
75 84 70 135 -10 111 -125 172 -227 121z"/>
<path d="M3575 7630 c-11 -4 -33 -22 -49 -38 -53 -56 -46 -167 12 -212 89 -71
228 -29 252 76 17 71 -24 151 -88 175 -29 11 -100 11 -127 -1z"/>
<path d="M5192 7624 c-103 -53 -108 -184 -10 -257 35 -26 123 -27 164 -2 90
53 100 170 20 244 -34 32 -125 40 -174 15z"/>
<path d="M4383 7259 c-56 -13 -137 -91 -152 -145 -25 -91 -8 -165 53 -228 107
-110 295 -91 370 37 108 183 -57 386 -271 336z"/>
<path d="M2743 5360 c-54 -32 -79 -100 -62 -164 13 -49 32 -72 81 -97 47 -24
82 -24 135 1 103 46 114 196 18 258 -45 29 -126 30 -172 2z"/>
<path d="M5997 5361 c-75 -49 -94 -160 -38 -225 23 -26 86 -56 118 -56 45 1
115 41 137 79 23 41 24 109 1 148 -40 69 -154 97 -218 54z"/>
<path d="M3603 4930 c-70 -16 -113 -71 -113 -145 0 -87 60 -145 152 -145 75 0
130 38 146 102 13 50 1 110 -26 142 -35 39 -103 59 -159 46z"/>
<path d="M5217 4926 c-100 -36 -137 -137 -82 -219 33 -47 72 -67 132 -67 89 0
153 63 153 151 0 38 -6 52 -35 87 -20 22 -43 43 -53 46 -49 14 -81 14 -115 2z"/>
<path d="M4363 4458 c-80 -57 -84 -167 -9 -238 40 -36 137 -41 186 -8 90 60
93 177 7 242 -46 35 -137 37 -184 4z"/>
<path d="M4250 3205 l0 -456 88 3 c82 3 87 4 87 25 0 33 13 38 38 16 80 -72
264 -69 367 5 45 33 65 56 98 117 24 46 27 60 27 160 0 102 -2 114 -30 169
-16 32 -48 75 -71 95 -49 43 -150 81 -216 81 -52 0 -149 -32 -168 -55 -7 -8
-19 -15 -26 -15 -11 0 -14 30 -14 155 l0 155 -90 0 -90 0 0 -455z m428 41 c15
-8 40 -28 57 -46 27 -28 30 -38 34 -111 3 -72 1 -83 -23 -119 -82 -124 -268
-92 -306 52 -23 83 14 188 77 222 36 19 126 20 161 2z"/>
<path d="M5085 3648 c-3 -7 -4 -211 -3 -453 l3 -440 93 -3 92 -3 0 456 0 455
-90 0 c-63 0 -92 -4 -95 -12z"/>
<path d="M1640 3594 c0 -11 0 -203 -1 -429 l-1 -410 209 -3 c242 -4 332 7 418
50 158 78 236 228 221 422 -10 133 -69 236 -175 304 -103 66 -147 74 -423 79
-236 5 -248 4 -248 -13z m526 -185 c186 -110 172 -385 -23 -474 -48 -23 -67
-25 -183 -25 l-130 0 0 263 c0 145 3 267 8 271 4 5 66 6 138 4 129 -4 133 -5
190 -39z"/>
<path d="M6450 3599 c0 -9 20 -59 80 -194 10 -22 32 -74 50 -115 17 -41 42
-99 56 -128 13 -29 24 -55 24 -57 0 -3 9 -24 19 -48 11 -23 34 -76 51 -117 18
-41 40 -93 50 -115 9 -22 20 -48 23 -57 6 -16 20 -18 107 -18 87 0 101 2 107
18 8 22 59 142 89 210 13 29 24 55 24 58 0 3 8 24 19 47 10 23 35 80 56 127
20 47 43 99 50 115 7 17 28 64 45 105 18 41 41 94 51 117 11 23 19 47 19 52 0
16 -175 14 -187 -1 -5 -7 -22 -42 -37 -78 -16 -36 -34 -78 -41 -95 -8 -16 -28
-64 -45 -105 -18 -41 -38 -88 -45 -105 -37 -84 -74 -173 -80 -193 -4 -13 -11
-22 -16 -20 -6 2 -30 50 -55 108 -24 58 -49 114 -54 125 -5 11 -39 91 -75 178
-35 87 -69 167 -75 177 -10 18 -22 20 -110 20 -65 0 -100 -4 -100 -11z"/>
<path d="M2818 3400 c-74 -23 -119 -51 -167 -106 -57 -65 -74 -125 -69 -239 4
-86 7 -98 40 -152 66 -107 174 -163 314 -163 83 0 182 31 231 71 87 71 127
163 122 282 -7 152 -83 253 -229 303 -85 29 -160 30 -242 4z m214 -165 c94
-70 96 -240 5 -309 -40 -29 -93 -39 -147 -27 -81 18 -124 81 -124 182 0 56 4
73 28 109 15 23 42 48 59 56 45 20 145 14 179 -11z"/>
<path d="M5621 3398 c-82 -28 -161 -99 -198 -177 -36 -78 -38 -204 -4 -275 31
-68 68 -112 121 -145 130 -83 345 -81 457 5 18 14 33 30 33 37 0 7 -21 33 -45
59 l-45 47 -36 -24 c-59 -40 -175 -46 -242 -11 -27 14 -90 92 -81 100 2 3 114
6 249 8 l245 3 0 80 c-1 95 -25 156 -90 221 -84 84 -238 114 -364 72z m199
-141 c46 -24 98 -96 85 -117 -4 -6 -67 -10 -161 -10 -177 0 -184 4 -140 70 50
76 134 98 216 57z"/>
<path d="M3414 3395 c-3 -8 -4 -117 -2 -242 4 -219 5 -230 29 -272 31 -57 79
-101 131 -123 84 -33 227 -17 284 34 29 26 44 22 44 -12 l0 -30 90 0 90 0 -2
328 -3 327 -90 0 -90 0 -5 -200 c-5 -186 -7 -203 -28 -236 -26 -43 -75 -69
-129 -69 -47 0 -80 16 -107 53 -19 26 -21 45 -26 240 l-5 212 -88 3 c-71 2
-88 0 -93 -13z"/>
</g>
</svg>
